<?xml version="1.0" encoding="utf-8"?>
<svg viewBox="109.688 24.234 139.25 143.406" xmlns="http://www.w3.org/2000/svg">
  <path d="M 186.428 73.157 L 186.428 123.657 L 172.318 123.657 L 172.318 73.157 C 172.318 72.17 172.128 71.25 171.748 70.397 C 171.375 69.544 170.868 68.794 170.228 68.147 C 169.581 67.507 168.831 67.007 167.978 66.647 C 167.125 66.287 166.205 66.107 165.218 66.107 C 164.231 66.107 163.311 66.287 162.458 66.647 C 161.605 67.007 160.855 67.507 160.208 68.147 C 159.568 68.794 159.068 69.544 158.708 70.397 C 158.348 71.25 158.168 72.17 158.168 73.157 L 158.168 123.657 L 144.008 123.657 L 144.008 73.157 C 144.008 72.17 143.828 71.25 143.468 70.397 C 143.108 69.544 142.608 68.794 141.968 68.147 C 141.328 67.507 140.578 67.007 139.718 66.647 C 138.865 66.287 137.945 66.107 136.958 66.107 C 135.971 66.107 135.051 66.287 134.198 66.647 C 133.345 67.007 132.598 67.507 131.958 68.147 C 131.311 68.794 130.808 69.544 130.448 70.397 C 130.088 71.25 129.908 72.17 129.908 73.157 L 129.908 123.657 L 115.758 123.657 L 115.758 73.157 C 115.758 70.23 116.308 67.477 117.408 64.897 C 118.508 62.317 120.021 60.064 121.948 58.137 C 123.868 56.217 126.118 54.707 128.698 53.607 C 131.278 52.5 134.031 51.947 136.958 51.947 C 139.591 51.947 142.125 52.417 144.558 53.357 C 146.991 54.29 149.178 55.647 151.118 57.427 C 153.058 55.647 155.235 54.29 157.648 53.357 C 160.061 52.417 162.585 51.947 165.218 51.947 C 168.145 51.947 170.898 52.5 173.478 53.607 C 176.058 54.707 178.311 56.217 180.238 58.137 C 182.158 60.064 183.668 62.317 184.768 64.897 C 185.875 67.477 186.428 70.23 186.428 73.157 Z" transform="matrix(1, 0, 0, 1, 0, 0)" style="fill: rgb(51, 51, 51); white-space: pre;"/>
  <path d="M 242.863 70.896 L 242.863 121.396 C 242.863 124.323 242.31 127.076 241.203 129.656 C 240.103 132.236 238.593 134.489 236.673 136.416 C 234.746 138.336 232.493 139.846 229.913 140.946 C 227.333 142.053 224.58 142.606 221.653 142.606 C 219.02 142.606 216.496 142.146 214.083 141.226 C 211.67 140.299 209.493 138.949 207.553 137.176 C 205.613 138.949 203.426 140.299 200.993 141.226 C 198.56 142.146 196.026 142.606 193.393 142.606 C 190.466 142.606 187.713 142.053 185.133 140.946 C 182.553 139.846 180.303 138.336 178.383 136.416 C 176.456 134.489 174.943 132.236 173.843 129.656 C 172.743 127.076 172.193 124.323 172.193 121.396 L 172.193 70.896 L 186.343 70.896 L 186.343 121.396 C 186.343 122.383 186.523 123.313 186.883 124.186 C 187.243 125.053 187.746 125.809 188.393 126.456 C 189.033 127.096 189.78 127.596 190.633 127.956 C 191.486 128.316 192.406 128.496 193.393 128.496 C 194.38 128.496 195.3 128.316 196.153 127.956 C 197.013 127.596 197.763 127.096 198.403 126.456 C 199.043 125.809 199.543 125.053 199.903 124.186 C 200.263 123.313 200.443 122.383 200.443 121.396 L 200.443 70.896 L 214.603 70.896 L 214.603 121.396 C 214.603 122.383 214.783 123.313 215.143 124.186 C 215.503 125.053 216.003 125.809 216.643 126.456 C 217.29 127.096 218.04 127.596 218.893 127.956 C 219.746 128.316 220.666 128.496 221.653 128.496 C 222.64 128.496 223.56 128.316 224.413 127.956 C 225.266 127.596 226.016 127.096 226.663 126.456 C 227.303 125.809 227.81 125.053 228.183 124.186 C 228.563 123.313 228.753 122.383 228.753 121.396 L 228.753 70.896 L 242.863 70.896 Z" transform="matrix(1, 0, 0, 1, 0, 0)" style="fill: rgb(51, 51, 51); white-space: pre;"/>
</svg>