<?xml version="1.0" encoding="utf-8"?>
<svg viewBox="109.688 24.219 139.313 147.375" width="139.313" height="147.375" xmlns="http://www.w3.org/2000/svg">
  <path d="M 186.428 73.157 L 186.428 123.657 L 172.318 123.657 L 172.318 73.157 C 172.318 72.17 172.128 71.25 171.748 70.397 C 171.375 69.544 170.868 68.794 170.228 68.147 C 169.581 67.507 168.831 67.007 167.978 66.647 C 167.125 66.287 166.205 66.107 165.218 66.107 C 164.231 66.107 163.311 66.287 162.458 66.647 C 161.605 67.007 160.855 67.507 160.208 68.147 C 159.568 68.794 159.068 69.544 158.708 70.397 C 158.348 71.25 158.168 72.17 158.168 73.157 L 158.168 123.657 L 144.008 123.657 L 144.008 73.157 C 144.008 72.17 143.828 71.25 143.468 70.397 C 143.108 69.544 142.608 68.794 141.968 68.147 C 141.328 67.507 140.578 67.007 139.718 66.647 C 138.865 66.287 137.945 66.107 136.958 66.107 C 135.971 66.107 135.051 66.287 134.198 66.647 C 133.345 67.007 132.598 67.507 131.958 68.147 C 131.311 68.794 130.808 69.544 130.448 70.397 C 130.088 71.25 129.908 72.17 129.908 73.157 L 129.908 123.657 L 115.758 123.657 L 115.758 73.157 C 115.758 70.23 116.308 67.477 117.408 64.897 C 118.508 62.317 120.021 60.064 121.948 58.137 C 123.868 56.217 126.118 54.707 128.698 53.607 C 131.278 52.5 134.031 51.947 136.958 51.947 C 139.591 51.947 142.125 52.417 144.558 53.357 C 146.991 54.29 149.178 55.647 151.118 57.427 C 153.058 55.647 155.235 54.29 157.648 53.357 C 160.061 52.417 162.585 51.947 165.218 51.947 C 168.145 51.947 170.898 52.5 173.478 53.607 C 176.058 54.707 178.311 56.217 180.238 58.137 C 182.158 60.064 183.668 62.317 184.768 64.897 C 185.875 67.477 186.428 70.23 186.428 73.157 Z" transform="matrix(1, 0, 0, 1, 0, 0)" style="fill: rgb(51, 51, 51); white-space: pre;"/>
  <path d="M -172.256 -122.661 L -172.256 -72.161 L -186.366 -72.161 L -186.366 -122.661 C -186.366 -123.648 -186.556 -124.568 -186.936 -125.421 C -187.309 -126.274 -187.816 -127.024 -188.456 -127.671 C -189.103 -128.311 -189.853 -128.811 -190.706 -129.171 C -191.559 -129.531 -192.479 -129.711 -193.466 -129.711 C -194.453 -129.711 -195.373 -129.531 -196.226 -129.171 C -197.079 -128.811 -197.829 -128.311 -198.476 -127.671 C -199.116 -127.024 -199.616 -126.274 -199.976 -125.421 C -200.336 -124.568 -200.516 -123.648 -200.516 -122.661 L -200.516 -72.161 L -214.676 -72.161 L -214.676 -122.661 C -214.676 -123.648 -214.856 -124.568 -215.216 -125.421 C -215.576 -126.274 -216.076 -127.024 -216.716 -127.671 C -217.356 -128.311 -218.106 -128.811 -218.966 -129.171 C -219.819 -129.531 -220.739 -129.711 -221.726 -129.711 C -222.713 -129.711 -223.633 -129.531 -224.486 -129.171 C -225.339 -128.811 -226.086 -128.311 -226.726 -127.671 C -227.373 -127.024 -227.876 -126.274 -228.236 -125.421 C -228.596 -124.568 -228.776 -123.648 -228.776 -122.661 L -228.776 -72.161 L -242.926 -72.161 L -242.926 -122.661 C -242.926 -125.588 -242.376 -128.341 -241.276 -130.921 C -240.176 -133.501 -238.663 -135.754 -236.736 -137.681 C -234.816 -139.601 -232.566 -141.111 -229.986 -142.211 C -227.406 -143.318 -224.653 -143.871 -221.726 -143.871 C -219.093 -143.871 -216.559 -143.401 -214.126 -142.461 C -211.693 -141.528 -209.506 -140.171 -207.566 -138.391 C -205.626 -140.171 -203.449 -141.528 -201.036 -142.461 C -198.623 -143.401 -196.099 -143.871 -193.466 -143.871 C -190.539 -143.871 -187.786 -143.318 -185.206 -142.211 C -182.626 -141.111 -180.373 -139.601 -178.446 -137.681 C -176.526 -135.754 -175.016 -133.501 -173.916 -130.921 C -172.809 -128.341 -172.256 -125.588 -172.256 -122.661 Z" transform="matrix(-1, 0, 0, -1, 0, 0)" style="fill: rgb(51, 51, 51); white-space: pre;"/>
</svg>